<?xml version="1.0" encoding="iso-8859-1"?>
<!-- Generator: Adobe Illustrator 19.0.0, SVG Export Plug-In . SVG Version: 6.00 Build 0)  -->
<svg version="1.1" id="Layer_1" xmlns="http://www.w3.org/2000/svg" xmlns:xlink="http://www.w3.org/1999/xlink" x="0px" y="0px"
	 viewBox="0 0 511.999 511.999" style="enable-background:new 0 0 511.999 511.999;" xml:space="preserve">
<path style="fill:#F04C35;" d="M477.078,385.094c22.183-37.904,34.911-82.016,34.911-129.103C511.99,114.609,397.379,0,256,0
	c-0.037,0-0.074,0-0.113,0c-0.037,0-0.073,0-0.111,0c-1.981,0-3.962,0.03-5.943,0.078c-0.432,0.011-0.86,0.026-1.292,0.037
	c-1.562,0.046-3.124,0.104-4.685,0.178c-0.602,0.028-1.204,0.057-1.806,0.089c-1.319,0.072-2.638,0.159-3.957,0.252
	c-23.434,1.619-45.997,6.394-67.272,13.9l-0.48,0.152c-0.254,0.082-0.501,0.175-0.744,0.277
	c-28.65,10.272-54.932,25.504-77.818,44.666c-0.255,0.212-0.507,0.43-0.763,0.644c-1.037,0.874-2.073,1.749-3.096,2.641
	c-1.27,1.103-2.526,2.218-3.772,3.348c-0.44,0.396-0.872,0.805-1.31,1.205c-0.979,0.9-1.954,1.804-2.918,2.716
	c-0.451,0.43-0.899,0.86-1.346,1.292c-0.945,0.906-1.881,1.822-2.812,2.745c-0.438,0.434-0.876,0.867-1.311,1.305
	c-0.943,0.949-1.875,1.908-2.803,2.87c-0.405,0.421-0.816,0.839-1.22,1.262c-1.171,1.233-2.33,2.478-3.475,3.733
	c-0.917,1.003-1.818,2.022-2.717,3.039c-0.216,0.245-0.436,0.487-0.65,0.733C24.014,132.228,0.009,191.302,0.009,255.99
	c0,135.33,105.021,246.119,238.007,255.351c1.36,0.098,2.721,0.184,4.085,0.258c0.294,0.018,0.585,0.039,0.88,0.052
	c4.4,0.23,8.817,0.349,13.252,0.349c0.024,0,0.049,0,0.072,0l2.515-0.022c0.258-0.002,0.509-0.022,0.76-0.046
	c3.834-0.052,7.648-0.184,11.44-0.403c0.032,0,0.065,0.004,0.098,0.004c0.213,0,0.43-0.009,0.644-0.024l2.795-0.204
	c0.034-0.002,0.07-0.007,0.103-0.009c57.634-4.151,109.975-27.386,150.754-63.415c0.145-0.128,0.293-0.252,0.436-0.382l0.816-0.728
	c0.046-0.039,0.09-0.082,0.135-0.121c0.908-0.815,1.81-1.637,2.708-2.463c0.139-0.13,0.281-0.253,0.42-0.384l0.947-0.885
	c0.092-0.087,0.181-0.173,0.273-0.26c0.853-0.8,1.701-1.604,2.542-2.415c0.079-0.075,0.16-0.15,0.239-0.225l1.084-1.062
	c0.083-0.082,0.165-0.164,0.25-0.248c15.895-15.597,29.76-33.248,41.173-52.527c0.122-0.189,0.253-0.369,0.362-0.571
	L477.078,385.094z"/>
<path style="opacity:0.19;fill:#202121;enable-background:new    ;" d="M267.891,511.341
	C134.905,502.11,29.884,391.32,29.884,255.99c0-64.687,24.005-123.762,63.577-168.828c0.214-0.245,0.434-0.487,0.65-0.733
	c0.9-1.017,1.8-2.036,2.717-3.039c1.146-1.255,2.304-2.5,3.475-3.733c0.403-0.423,0.814-0.841,1.22-1.262
	c0.928-0.962,1.86-1.92,2.803-2.87c0.435-0.438,0.872-0.871,1.311-1.305c0.93-0.924,1.868-1.838,2.812-2.745
	c0.447-0.432,0.896-0.862,1.346-1.292c0.965-0.912,1.939-1.817,2.918-2.716c0.437-0.401,0.869-0.809,1.31-1.205
	c1.245-1.13,2.503-2.243,3.772-3.348c1.022-0.891,2.058-1.767,3.096-2.641c0.254-0.214,0.506-0.432,0.763-0.644
	c22.886-19.163,49.169-34.394,77.819-44.666c0.243-0.102,0.49-0.195,0.744-0.277l0.48-0.152c21.275-7.507,43.837-12.281,67.271-13.9
	c0.99-0.07,1.98-0.13,2.971-0.189C265.994,0.16,261.017,0,256,0c-0.037,0-0.074,0-0.113,0c-0.037,0-0.073,0-0.111,0
	c-1.981,0-3.962,0.03-5.943,0.078c-0.432,0.011-0.86,0.026-1.292,0.037c-1.562,0.046-3.124,0.104-4.685,0.178
	c-0.602,0.028-1.204,0.057-1.806,0.089c-1.319,0.072-2.638,0.159-3.957,0.252c-23.434,1.619-45.997,6.394-67.272,13.9l-0.48,0.152
	c-0.254,0.082-0.501,0.175-0.744,0.277c-28.65,10.272-54.932,25.504-77.818,44.666c-0.255,0.212-0.507,0.43-0.763,0.644
	c-1.037,0.874-2.073,1.749-3.096,2.641c-1.27,1.103-2.526,2.218-3.772,3.348c-0.44,0.396-0.872,0.805-1.31,1.205
	c-0.979,0.9-1.954,1.804-2.918,2.716c-0.451,0.43-0.899,0.86-1.346,1.292c-0.945,0.906-1.881,1.822-2.812,2.745
	c-0.438,0.434-0.876,0.867-1.311,1.305c-0.943,0.949-1.875,1.908-2.803,2.87c-0.405,0.421-0.816,0.839-1.22,1.262
	c-1.171,1.233-2.33,2.478-3.475,3.733c-0.917,1.003-1.818,2.022-2.717,3.039c-0.216,0.245-0.436,0.487-0.65,0.733
	C24.014,132.228,0.009,191.302,0.009,255.99c0,135.33,105.021,246.119,238.007,255.351c1.36,0.098,2.721,0.184,4.085,0.258
	c0.294,0.018,0.585,0.039,0.88,0.052c4.4,0.23,8.817,0.349,13.252,0.349c0.024,0,0.049,0,0.072,0l2.515-0.022
	c0.258-0.002,0.509-0.022,0.76-0.046c3.804-0.052,7.588-0.184,11.35-0.398C269.916,511.473,268.903,511.412,267.891,511.341z"/>
<path style="fill:#C6271A;" d="M510.406,284.455c-15.952,1.102-31.634,3.542-46.989,7.295c-5.481-19.024-12.42-37.661-20.76-55.757
	c21.215-13.835,41.734-28.308,61.433-43.325c-1.54-6.052-3.298-12.016-5.26-17.886c-0.521,0.255-1.023,0.566-1.5,0.934
	c-19.979,15.39-40.847,30.208-62.452,44.362c-1.704-3.299-3.443-6.582-5.244-9.839c-8.893-16.089-18.759-31.368-29.551-45.817
	c21.275-20.938,39.071-45.191,52.747-72.093c-3.875-4.655-7.911-9.173-12.101-13.541c-0.876,0.75-1.617,1.684-2.159,2.783
	c-12.686,25.709-29.363,48.894-49.396,68.915c-23.621-28.791-51.204-53.955-82.505-75.192
	c-42.002-28.496-89.859-48.784-139.685-59.379c-9.84,3.65-19.394,7.889-28.621,12.672c0.369,0.104,0.744,0.194,1.133,0.251
	c94.595,13.768,178.007,61.429,236.798,133.672c-14.12,12.326-29.642,23.222-46.399,32.485
	c-102.49,56.65-228.625,39.287-308.326-41.944c-2.556,5.812-4.901,11.736-7.027,17.764c39.597,37.955,91.132,63.261,146.446,71.665
	c14.06,2.14,28.118,3.2,42.111,3.2c46.947,0,93.063-11.952,135.303-35.299c17.556-9.704,33.845-21.087,48.694-33.952
	c9.878,13.368,18.956,27.488,27.153,42.316c1.989,3.599,3.912,7.227,5.777,10.879c-17.416,10.993-35.268,21.561-53.498,31.636
	c-111.902,61.854-231.328,101.531-337.892,112.45c2.949,5.684,6.107,11.242,9.46,16.667
	c106.912-12.237,225.682-52.235,336.937-113.729c17.93-9.911,35.506-20.285,52.668-31.073c7.495,16.542,13.773,33.546,18.778,50.889
	c-18.083,5.658-35.669,13.169-52.636,22.548c-39.005,21.561-72.629,52.267-97.238,88.802
	c-21.162,31.415-35.722,67.165-42.545,104.144c0.647,0.004,1.291,0.024,1.939,0.024c5.395,0,10.744-0.186,16.056-0.516
	c14.833-74.296,62.591-139.645,130.292-177.066c15.678-8.668,31.912-15.639,48.601-20.917c7.454,31.275,10.867,63.469,10.067,95.827
	c6.294-8.403,12.08-17.206,17.32-26.363c-1.099-25.048-4.606-49.885-10.442-74.189c13.068-3.177,26.385-5.348,39.912-6.479
	C508.878,296.403,509.742,290.46,510.406,284.455z"/>
<g>
</g>
<g>
</g>
<g>
</g>
<g>
</g>
<g>
</g>
<g>
</g>
<g>
</g>
<g>
</g>
<g>
</g>
<g>
</g>
<g>
</g>
<g>
</g>
<g>
</g>
<g>
</g>
<g>
</g>
</svg>
