<?xml version="1.0" encoding="iso-8859-1"?>
<!-- Generator: Adobe Illustrator 19.0.0, SVG Export Plug-In . SVG Version: 6.00 Build 0)  -->
<svg version="1.1" id="Layer_1" xmlns="http://www.w3.org/2000/svg" xmlns:xlink="http://www.w3.org/1999/xlink" x="0px" y="0px"
	 viewBox="0 0 512 512" style="enable-background:new 0 0 512 512;" xml:space="preserve">
<g>
	<path style="fill:#E7F3EB;" d="M264.023,511.862c-1.023,0.029-2.047,0.057-3.072,0.075
		C261.975,511.917,262.999,511.894,264.023,511.862z"/>
	<path style="fill:#E7F3EB;" d="M242.467,511.622c-1.375-0.074-2.746-0.162-4.116-0.259c-21.694-1.505-42.643-5.709-62.53-12.251
		c0.018,0.026,0.04,0.057,0.058,0.083c23.261,7.659,47.988,12.088,73.66,12.724c-2.065-0.058-4.127-0.136-6.185-0.244
		C243.057,511.661,242.764,511.639,242.467,511.622z"/>
	<path style="fill:#E7F3EB;" d="M269.314,511.658c-0.149,0.008-0.299,0.013-0.447,0.02
		C269.016,511.67,269.165,511.664,269.314,511.658z"/>
	<path style="fill:#E7F3EB;" d="M311.086,353.837h-95.137h-14.007L138.05,438.43c9.227,15.345,18.754,30.932,26.143,42.731
		c31.407,16.958,66.727,27.596,104.261,30.202c0.919,0.065,1.84,0.12,2.761,0.176c22.589-1.324,44.389-5.576,65.03-12.384
		c5.313-7.437,22.274-34.892,38.212-61.409L311.086,353.837z"/>
	<path style="fill:#E7F3EB;" d="M186.96,344.758l-34.3-103.548L47.263,205.165l-16.638,16.799
		c-1.306,10.518-1.994,21.227-1.994,32.099c0,64.925,24.001,124.232,63.598,169.571l32.203,3.915L186.96,344.758z"/>
	<path style="fill:#E7F3EB;" d="M359.447,241.211l-34.018,102.701l63.087,83.531l64.367-7.824C489.793,375.254,512,318.222,512,256
		c0-1.027-0.027-2.047-0.039-3.071L464.7,205.213L359.447,241.211z"/>
	<path style="fill:#E7F3EB;" d="M157.477,224.439l89.899-67.308l-0.084-110.972L191.98,14.048
		c-25.948,10.235-49.841,24.54-70.881,42.155c-0.257,0.214-0.511,0.433-0.767,0.649c-1.047,0.88-2.09,1.763-3.119,2.661
		c-1.281,1.112-2.546,2.235-3.801,3.373c-0.443,0.399-0.879,0.811-1.32,1.215c-0.988,0.907-1.968,1.818-2.94,2.737
		c-0.454,0.433-0.907,0.867-1.357,1.302c-0.953,0.913-1.896,1.835-2.833,2.766c-0.442,0.437-0.882,0.874-1.322,1.315
		c-0.95,0.956-1.889,1.923-2.824,2.892c-0.408,0.424-0.821,0.846-1.228,1.272c-1.18,1.243-2.349,2.496-3.502,3.761
		c-0.924,1.011-1.832,2.038-2.739,3.062c-0.217,0.247-0.438,0.491-0.655,0.738c-20.016,22.794-36.076,49.149-47.111,77.987
		l6.078,26.317L157.477,224.439z"/>
	<path style="fill:#E7F3EB;" d="M264.717,46.15l0.084,111.035l89.828,67.254l105.608-36.118l14.936-64.665
		C442.204,69.17,389.491,27.974,326.952,9.971c-0.235,0.17-0.48,0.33-0.735,0.478L264.717,46.15z"/>
</g>
<g>
	<path style="fill:#CEDBD2;" d="M357.92,226.902c2.999,2.248,4.227,6.16,3.049,9.715l-1.522,4.595L464.7,205.213l-3.401-3.435
		c-2.104-2.125-2.972-5.18-2.3-8.091l1.239-5.365l-105.608,36.118L357.92,226.902z"/>
	<path style="fill:#CEDBD2;" d="M52.916,193.687c0.673,2.912-0.195,5.966-2.298,8.091l-3.353,3.386l105.397,36.046l-1.521-4.594
		c-1.179-3.554,0.049-7.467,3.049-9.715l3.288-2.463L51.661,188.249L52.916,193.687z"/>
	<path style="fill:#CEDBD2;" d="M324.119,347.863c-1.181,3.567-4.514,5.975-8.271,5.975h-4.764l63.371,83.906
		c1.127-1.876,2.25-3.748,3.363-5.607c1.382-2.309,3.752-3.851,6.426-4.174l4.27-0.519l-63.087-83.531L324.119,347.863z"/>
	<path style="fill:#CEDBD2;" d="M251.622,48.673l-4.331-2.514l0.084,110.972l3.387-2.536c1.927-1.442,4.305-1.988,6.57-1.634
		c1.426,0.192,2.812,0.736,4.011,1.634l3.458,2.589L264.717,46.15l-4.346,2.523c-1.352,0.784-2.864,1.178-4.374,1.178
		S252.975,49.457,251.622,48.673z"/>
	<path style="fill:#CEDBD2;" d="M187.988,347.863l-1.028-3.105l-62.528,82.789l3.418,0.415c2.671,0.323,5.042,1.866,6.424,4.174
		c1.248,2.086,2.51,4.188,3.776,6.294l63.892-84.593h-5.682C192.502,353.837,189.169,351.43,187.988,347.863z"/>
</g>
<g>
	<path style="fill:#AFAFAF;" d="M275.147,36.474c1.309,0.758,2.764,1.142,4.224,1.167l-19,11.031l4.346-2.523l61.5-35.701
		c0.256-0.149,0.501-0.309,0.735-0.478C304.421,3.484,280.617,0,255.999,0c-5.872,0-11.694,0.216-17.466,0.605
		c-6.116,1.152-12.153,2.522-18.108,4.098L275.147,36.474z"/>
	<path style="fill:#AFAFAF;" d="M481.072,187.105c-0.673,2.912,0.195,5.966,2.3,8.089l26.348,26.602
		c-3.335-24.981-10.262-48.826-20.263-70.987L481.072,187.105z"/>
	<path style="fill:#AFAFAF;" d="M481.072,187.105l8.384-36.296c-4.227-9.365-9.001-18.428-14.282-27.153l-14.936,64.665
		l-1.239,5.365c-0.673,2.912,0.196,5.966,2.3,8.091l3.401,3.435l47.261,47.716c-0.124-10.544-0.88-20.933-2.241-31.134
		l-26.348-26.602C481.267,193.071,480.4,190.017,481.072,187.105z"/>
	<path style="opacity:0.19;fill:#AFAFAF;enable-background:new    ;" d="M481.072,187.105l8.384-36.296
		c-4.227-9.365-9.001-18.428-14.282-27.153l-14.936,64.665l-1.239,5.365c-0.673,2.912,0.196,5.966,2.3,8.091l3.401,3.435
		l47.261,47.716c-0.124-10.544-0.88-20.933-2.241-31.134l-26.348-26.602C481.267,193.071,480.4,190.017,481.072,187.105z"/>
	<path style="fill:#AFAFAF;" d="M50.617,201.778c2.104-2.125,2.971-5.18,2.298-8.091l-1.256-5.436l-6.078-26.317
		c-7.281,19.028-12.362,39.143-14.956,60.03l16.638-16.799L50.617,201.778z"/>
	<path style="fill:#AFAFAF;" d="M251.622,48.673c1.352,0.784,2.864,1.178,4.374,1.178s3.022-0.394,4.374-1.178l19-11.031
		c-1.462-0.023-2.916-0.408-4.224-1.167L220.425,4.703c-6.668,1.765-13.234,3.785-19.679,6.06l-0.482,0.153
		c-0.256,0.083-0.506,0.177-0.749,0.28c-2.532,0.908-5.039,1.868-7.534,2.852l55.311,32.111L251.622,48.673z"/>
	<path style="opacity:0.19;fill:#AFAFAF;enable-background:new    ;" d="M251.622,48.673c1.352,0.784,2.864,1.178,4.374,1.178
		s3.022-0.394,4.374-1.178l19-11.031c-1.462-0.023-2.916-0.408-4.224-1.167L220.425,4.703c-6.668,1.765-13.234,3.785-19.679,6.06
		l-0.482,0.153c-0.256,0.083-0.506,0.177-0.749,0.28c-2.532,0.908-5.039,1.868-7.534,2.852l55.311,32.111L251.622,48.673z"/>
	<path style="fill:#AFAFAF;" d="M384.246,427.962l27.18-3.303c-1.822,0.686-3.382,1.969-4.403,3.672
		c-12.091,20.201-25.31,41.821-33.914,55.364c30.737-15.841,57.848-37.724,79.773-64.076l-64.367,7.824L384.246,427.962z"/>
	<path style="fill:#AFAFAF;" d="M411.425,424.659l-27.18,3.303c-2.673,0.323-5.043,1.866-6.426,4.174
		c-1.113,1.859-2.236,3.731-3.363,5.607c-15.938,26.518-32.899,53.973-38.212,61.409c12.759-4.209,25.079-9.385,36.863-15.457
		c8.604-13.544,21.824-35.163,33.914-55.364C408.042,426.626,409.603,425.345,411.425,424.659z"/>
	<path style="opacity:0.19;fill:#AFAFAF;enable-background:new    ;" d="M411.425,424.659l-27.18,3.303
		c-2.673,0.323-5.043,1.866-6.426,4.174c-1.113,1.859-2.236,3.731-3.363,5.607c-15.938,26.518-32.899,53.973-38.212,61.409
		c12.759-4.209,25.079-9.385,36.863-15.457c8.604-13.544,21.824-35.163,33.914-55.364
		C408.042,426.626,409.603,425.345,411.425,424.659z"/>
	<path style="fill:#AFAFAF;" d="M133.881,481.05c13.327,7.247,27.373,13.329,41.997,18.144c-0.018-0.026-0.039-0.057-0.058-0.083
		C161.225,494.31,147.197,488.256,133.881,481.05z"/>
	<path style="fill:#AFAFAF;" d="M127.851,427.962l-3.418-0.415l-32.203-3.915c20.274,23.214,44.63,42.769,71.964,57.528
		c-7.389-11.798-16.916-27.386-26.143-42.731c-1.266-2.106-2.528-4.208-3.776-6.294C132.892,429.827,130.52,428.285,127.851,427.962
		z"/>
	<path style="fill:#AFAFAF;" d="M360.968,236.617c1.179-3.554-0.05-7.467-3.049-9.715l-3.289-2.463l-89.828-67.254l-3.458-2.589
		l16.415,12.29l-94.124,70.475c-3.001,2.246-4.228,6.158-3.05,9.715l35.366,106.763h95.137h4.764c3.756,0,7.09-2.407,8.271-5.975
		l1.309-3.952l34.018-102.701L360.968,236.617z"/>
	<path style="fill:#AFAFAF;" d="M180.583,247.074c-1.179-3.557,0.049-7.469,3.05-9.715l94.124-70.475l-16.415-12.29
		c-1.199-0.898-2.585-1.442-4.011-1.634c-2.265-0.353-4.643,0.192-6.57,1.634l-3.387,2.536l-89.899,67.308l-3.288,2.463
		c-3,2.248-4.227,6.16-3.049,9.715l1.521,4.594l34.3,103.548l1.028,3.105c1.181,3.567,4.514,5.975,8.272,5.975h5.682h14.007
		L180.583,247.074z"/>
	<path style="opacity:0.19;fill:#AFAFAF;enable-background:new    ;" d="M180.583,247.074c-1.179-3.557,0.049-7.469,3.05-9.715
		l94.124-70.475l-16.415-12.29c-1.199-0.898-2.585-1.442-4.011-1.634c-2.265-0.353-4.643,0.192-6.57,1.634l-3.387,2.536
		l-89.899,67.308l-3.288,2.463c-3,2.248-4.227,6.16-3.049,9.715l1.521,4.594l34.3,103.548l1.028,3.105
		c1.181,3.567,4.514,5.975,8.272,5.975h5.682h14.007L180.583,247.074z"/>
</g>
<path style="fill:#E7F3EB;" d="M164.193,481.161c5.255,8.391,9.426,14.864,11.628,17.951c19.887,6.541,40.836,10.744,62.53,12.251
	c1.37,0.098,2.741,0.186,4.116,0.259c0.298,0.018,0.591,0.039,0.887,0.053c2.058,0.107,4.12,0.186,6.185,0.244
	c2.147,0.054,4.301,0.082,6.46,0.082c1.655,0,3.303-0.031,4.951-0.063c1.026-0.017,2.049-0.046,3.072-0.075
	c1.617-0.05,3.233-0.105,4.844-0.185c0.149-0.007,0.299-0.013,0.447-0.02c0.635-0.032,1.266-0.083,1.901-0.121
	c-0.922-0.056-1.842-0.111-2.761-0.176C230.92,508.757,195.6,498.118,164.193,481.161z"/>
<path style="opacity:0.19;fill:#202121;enable-background:new    ;" d="M164.193,481.161c5.255,8.391,9.426,14.864,11.628,17.951
	c19.887,6.541,40.836,10.744,62.53,12.251c1.37,0.098,2.741,0.186,4.116,0.259c0.298,0.018,0.591,0.039,0.887,0.053
	c2.058,0.107,4.12,0.186,6.185,0.244c2.147,0.054,4.301,0.082,6.46,0.082c1.655,0,3.303-0.031,4.951-0.063
	c1.026-0.017,2.049-0.046,3.072-0.075c1.617-0.05,3.233-0.105,4.844-0.185c0.149-0.007,0.299-0.013,0.447-0.02
	c0.635-0.032,1.266-0.083,1.901-0.121c-0.922-0.056-1.842-0.111-2.761-0.176C230.92,508.757,195.6,498.118,164.193,481.161z"/>
<path style="fill:#E7F3EB;" d="M28.632,254.062c0-10.871,0.688-21.581,1.994-32.099L0.04,252.844C0.027,253.896,0,254.944,0,256
	c0,62.217,22.203,119.243,59.105,163.607l33.123,4.025C52.633,378.294,28.632,318.986,28.632,254.062z"/>
<path style="opacity:0.19;fill:#202121;enable-background:new    ;" d="M28.632,254.062c0-10.871,0.688-21.581,1.994-32.099
	L0.04,252.844C0.027,253.896,0,254.944,0,256c0,62.217,22.203,119.243,59.105,163.607l33.123,4.025
	C52.633,378.294,28.632,318.986,28.632,254.062z"/>
<path style="fill:#E7F3EB;" d="M92.693,83.946c0.217-0.247,0.438-0.491,0.655-0.738c0.908-1.025,1.815-2.051,2.739-3.062
	c1.153-1.265,2.322-2.519,3.502-3.761c0.406-0.426,0.819-0.848,1.228-1.272c0.935-0.97,1.876-1.935,2.824-2.892
	c0.44-0.442,0.88-0.878,1.322-1.315c0.937-0.931,1.881-1.852,2.833-2.766c0.45-0.435,0.903-0.869,1.357-1.302
	c0.972-0.919,1.953-1.831,2.94-2.737c0.441-0.404,0.876-0.815,1.32-1.215c1.255-1.139,2.521-2.26,3.801-3.373
	c1.029-0.898,2.074-1.781,3.119-2.661c0.256-0.216,0.509-0.435,0.767-0.649c21.039-17.616,44.932-31.921,70.881-42.155l-6.199-3.599
	c-0.256-0.149-0.5-0.309-0.735-0.479C122.469,27.985,69.731,69.222,36.765,123.756l8.817,38.177
	C56.617,133.094,72.677,106.741,92.693,83.946z"/>
<path style="opacity:0.19;fill:#202121;enable-background:new    ;" d="M92.693,83.946c0.217-0.247,0.438-0.491,0.655-0.738
	c0.908-1.025,1.815-2.051,2.739-3.062c1.153-1.265,2.322-2.519,3.502-3.761c0.406-0.426,0.819-0.848,1.228-1.272
	c0.935-0.97,1.876-1.935,2.824-2.892c0.44-0.442,0.88-0.878,1.322-1.315c0.937-0.931,1.881-1.852,2.833-2.766
	c0.45-0.435,0.903-0.869,1.357-1.302c0.972-0.919,1.953-1.831,2.94-2.737c0.441-0.404,0.876-0.815,1.32-1.215
	c1.255-1.139,2.521-2.26,3.801-3.373c1.029-0.898,2.074-1.781,3.119-2.661c0.256-0.216,0.509-0.435,0.767-0.649
	c21.039-17.616,44.932-31.921,70.881-42.155l-6.199-3.599c-0.256-0.149-0.5-0.309-0.735-0.479
	C122.469,27.985,69.731,69.222,36.765,123.756l8.817,38.177C56.617,133.094,72.677,106.741,92.693,83.946z"/>
<path style="fill:#AFAFAF;" d="M238.532,0.605c-7.151,0.482-14.226,1.243-21.204,2.301l3.096,1.797
	C226.379,3.127,232.417,1.757,238.532,0.605z"/>
<path style="opacity:0.19;fill:#202121;enable-background:new    ;" d="M238.532,0.605c-7.151,0.482-14.226,1.243-21.204,2.301
	l3.096,1.797C226.379,3.127,232.417,1.757,238.532,0.605z"/>
<path style="fill:#AFAFAF;" d="M45.582,161.933l-8.817-38.177C13.942,161.512,0.611,205.641,0.04,252.844l30.586-30.881
	C33.22,201.077,38.301,180.962,45.582,161.933z"/>
<path style="opacity:0.19;fill:#202121;enable-background:new    ;" d="M45.582,161.933l-8.817-38.177
	C13.942,161.512,0.611,205.641,0.04,252.844l30.586-30.881C33.22,201.077,38.301,180.962,45.582,161.933z"/>
<g>
	<path style="fill:#AFAFAF;" d="M191.98,14.048c2.494-0.984,5.002-1.944,7.534-2.852c0.244-0.103,0.492-0.197,0.749-0.28
		l0.482-0.153c6.446-2.275,13.011-4.295,19.679-6.06l-3.096-1.797c-11.007,1.668-21.782,4.042-32.282,7.064
		c0.235,0.17,0.48,0.33,0.735,0.479L191.98,14.048z"/>
	<path style="opacity:0.19;fill:#AFAFAF;enable-background:new    ;" d="M191.98,14.048c2.494-0.984,5.002-1.944,7.534-2.852
		c0.244-0.103,0.492-0.197,0.749-0.28l0.482-0.153c6.446-2.275,13.011-4.295,19.679-6.06l-3.096-1.797
		c-11.007,1.668-21.782,4.042-32.282,7.064c0.235,0.17,0.48,0.33,0.735,0.479L191.98,14.048z"/>
</g>
<path style="opacity:0.19;fill:#202121;enable-background:new    ;" d="M191.98,14.048c2.494-0.984,5.002-1.944,7.534-2.852
	c0.244-0.103,0.492-0.197,0.749-0.28l0.482-0.153c6.446-2.275,13.011-4.295,19.679-6.06l-3.096-1.797
	c-11.007,1.668-21.782,4.042-32.282,7.064c0.235,0.17,0.48,0.33,0.735,0.479L191.98,14.048z"/>
<path style="fill:#AFAFAF;" d="M175.821,499.112c-2.201-3.087-6.373-9.561-11.628-17.951c-27.333-14.758-51.69-34.315-71.964-57.528
	l-33.123-4.025c20.729,24.919,46.092,45.846,74.776,61.444C147.197,488.256,161.225,494.31,175.821,499.112z"/>
<path style="opacity:0.19;fill:#202121;enable-background:new    ;" d="M175.821,499.112c-2.201-3.087-6.373-9.561-11.628-17.951
	c-27.333-14.758-51.69-34.315-71.964-57.528l-33.123-4.025c20.729,24.919,46.092,45.846,74.776,61.444
	C147.197,488.256,161.225,494.31,175.821,499.112z"/>
<g>
</g>
<g>
</g>
<g>
</g>
<g>
</g>
<g>
</g>
<g>
</g>
<g>
</g>
<g>
</g>
<g>
</g>
<g>
</g>
<g>
</g>
<g>
</g>
<g>
</g>
<g>
</g>
<g>
</g>
</svg>
