<?xml version="1.0" encoding="iso-8859-1"?>
<!-- Generator: Adobe Illustrator 19.0.0, SVG Export Plug-In . SVG Version: 6.00 Build 0)  -->
<svg version="1.1" id="Layer_1" xmlns="http://www.w3.org/2000/svg" xmlns:xlink="http://www.w3.org/1999/xlink" x="0px" y="0px"
	 viewBox="0 0 512.013 512.013" style="enable-background:new 0 0 512.013 512.013;" xml:space="preserve">
<g>
	<path style="fill:#38454F;" d="M494.3,198.606l-80.8-33.7c-9.9-4.1-14.7-11.4-18.7-20.9c-1.8-4.3-3.2-13.2-4.2-23l-55.2,15.8
		l-26.4,79.5l-26.5-79.4l-53.5-15.4c-1,8.2-3.3,16.3-7.4,23.5c-4.4,7.8-10.2,13-19.9,14.8l-132.1,23.7
		c-40.6,8.8-69.6,44.8-69.6,86.4v190.1c0,11.7,9.4,21.1,21.1,21.1h215.3c21.8,11.2,46.4,17.7,72.6,17.7s50.8-6.4,72.6-17.7h112.8
		C517.9,481.106,517.9,198.606,494.3,198.606"/>
	<path style="fill:#38454F;" d="M335.4,101.506l54.8,15.6c-1.2-12.9-1.8-26.4-1.8-32.4c0-15.1-12.3-27.4-27.4-27.4h-37.6
		L335.4,101.506z"/>
	<path style="fill:#38454F;" d="M282.5,101.506l12-44.1h-40.4c-13.6,0-24.6,11-24.6,24.6v30.4c0,1.4-0.2,2.9-0.2,4.3L282.5,101.506z
		"/>
</g>
<path style="fill:#283238;" d="M321.1,172.906c-4.1-0.4-7.7,2.2-9,6l-3.2,9.5l-3.2-9.5c-1.3-3.8-4.9-6.4-9-6
	c-87.2,6.3-155.5,79.7-155.5,167c0,92.5,75.2,167.7,167.7,167.7s167.7-75.2,167.7-167.7C476.7,252.506,408.4,179.206,321.1,172.906"
	/>
<path style="fill:#38454F;" d="M273.7,375.206c-4.9,0-8.8-4-8.8-8.8s4-8.8,8.8-8.8c4.9,0,8.8,4,8.8,8.8S278.5,375.206,273.7,375.206
	"/>
<g>
	<path style="fill:#283238;" d="M129.2,266.706c7.5-15.1,7.5-32.9,0-48l-18.9-37.8l-27.8,0.2l-12.9,2.3
		c-40.6,8.9-69.6,44.9-69.6,86.5v190.1c0,11.7,9.4,21.1,21.1,21.1h102.5v-190.4C123.6,282.406,125.5,274.206,129.2,266.706"/>
	<path style="fill:#283238;" d="M194.2,161.206v-19.8c0-11.4-10.6-19.8-21.6-17.2l-79.4,18.3c-8,1.9-13.7,9-13.7,17.2v21.3h4.2
		L194.2,161.206z"/>
</g>
<polygon style="fill:#ECBA16;" points="309,4.406 335.4,101.506 397.2,119.206 335.4,136.806 309,216.306 282.5,136.806 
	220.7,119.206 282.5,101.506 "/>
<g>
	<path style="fill:#38454F;" d="M79.4,260.406H61.8c-9.7,0-17.7-7.9-17.7-17.7c0-9.7,7.9-17.7,17.7-17.7h17.7
		c9.7,0,17.7,7.9,17.7,17.7C97.1,252.506,89.2,260.406,79.4,260.406"/>
	<path style="fill:#38454F;" d="M309,454.606c-4.9,0-8.8-3.9-8.8-8.8v-17.7c0-4.9,4-8.8,8.8-8.8s8.8,3.9,8.8,8.8v17.7
		C317.8,450.706,313.8,454.606,309,454.606"/>
	<path style="fill:#38454F;" d="M383.9,423.606c-2.3,0-4.5-0.9-6.2-2.6l-12.5-12.5c-3.5-3.5-3.5-9,0-12.5s9-3.5,12.5,0l12.5,12.5
		c3.5,3.5,3.5,9,0,12.5C388.4,422.706,386.1,423.606,383.9,423.606"/>
	<path style="fill:#38454F;" d="M234.1,423.606c-2.3,0-4.5-0.9-6.2-2.6c-3.5-3.5-3.5-9,0-12.5l12.5-12.5c3.5-3.5,9-3.5,12.5,0
		c3.5,3.5,3.5,9,0,12.5l-12.6,12.5C238.6,422.706,236.3,423.606,234.1,423.606"/>
</g>
<path style="fill:#283238;" d="M480.8,193.006c2.9-3.2,4.8-7.3,4.8-12v-17.7c0-9.8-7.9-17.7-17.7-17.7h-17.7
	c-9.8,0-17.7,7.9-17.7,17.7v9.6L480.8,193.006z"/>
<path style="fill:#434C6D;" d="M309,428.106c-48.7,0-88.3-39.6-88.3-88.3s39.6-88.3,88.3-88.3s88.3,39.6,88.3,88.3
	S357.6,428.106,309,428.106"/>
<path style="fill:#7383BF;" d="M309,435.106c-52.5,0-95.3-42.7-95.3-95.3s42.7-95.3,95.3-95.3s95.3,42.7,95.3,95.3
	S361.5,435.106,309,435.106z M309,258.606c-44.8,0-81.3,36.5-81.3,81.3s36.5,81.3,81.3,81.3s81.3-36.5,81.3-81.3
	S353.8,258.606,309,258.606z"/>
<path style="fill:#FFFFFF;" d="M264.8,348.706c-4.9,0-8.8-3.9-8.8-8.8c0-29.2,23.8-53,53-53c4.9,0,8.8,3.9,8.8,8.8s-4,8.8-8.8,8.8
	c-19.5,0-35.3,15.8-35.3,35.3C273.7,344.706,269.7,348.706,264.8,348.706"/>
<g>
	<path style="fill:#38454F;" d="M53,348.706c4.9,0,8.8-3.9,8.8-8.8s-4-8.8-8.8-8.8H0v17.7h53V348.706z"/>
	<path style="fill:#38454F;" d="M44.1,384.006c4.9,0,8.8-3.9,8.8-8.8s-4-8.8-8.8-8.8H0v17.6H44.1z"/>
	<path style="fill:#38454F;" d="M35.3,419.306c4.9,0,8.8-3.9,8.8-8.8s-4-8.8-8.8-8.8H0v17.7h35.3V419.306z"/>
</g>
<g>
</g>
<g>
</g>
<g>
</g>
<g>
</g>
<g>
</g>
<g>
</g>
<g>
</g>
<g>
</g>
<g>
</g>
<g>
</g>
<g>
</g>
<g>
</g>
<g>
</g>
<g>
</g>
<g>
</g>
</svg>
